<?xml version="1.0" standalone="no"?>
<!DOCTYPE svg PUBLIC "-//W3C//DTD SVG 20010904//EN"
 "http://www.w3.org/TR/2001/REC-SVG-20010904/DTD/svg10.dtd">
<svg version="1.0" xmlns="http://www.w3.org/2000/svg"
 width="10.000000pt" height="10.000000pt" viewBox="0 0 10.000000 10.000000"
 preserveAspectRatio="xMidYMid meet">
<g transform="translate(0.000000,10.000000) scale(0.000980,-0.000977)"
fill="#000000" stroke="none">
<path d="M4792 10170 c-1630 -102 -3082 -947 -3974 -2315 -951 -1457 -1081
-3332 -340 -4920 260 -558 601 -1036 1053 -1480 403 -395 789 -670 1295 -924
547 -273 1121 -439 1764 -508 231 -25 768 -25 1000 0 1206 129 2275 637 3114
1482 1742 1754 1970 4509 539 6526 -348 491 -798 932 -1293 1268 -712 483
-1517 773 -2376 856 -192 19 -599 27 -782 15z m383 -663 c8 -231 1 -292 -38
-362 -30 -54 -104 -95 -172 -95 -54 0 -120 25 -147 56 -55 63 -77 197 -78 477
l0 127 59 0 58 0 7 -77 c3 -42 6 -126 6 -188 0 -191 26 -265 92 -265 82 0 91
34 88 309 -2 119 -2 219 -1 224 0 4 27 7 60 7 l59 0 7 -213z m-1295 193 c0 -5
-12 -38 -26 -73 -25 -61 -28 -64 -76 -79 -49 -15 -49 -15 -44 6 3 12 10 44 16
72 11 49 13 51 58 66 57 19 72 21 72 8z m1813 -26 c26 -9 47 -19 47 -24 0 -6
-15 -51 -35 -107 -3 -9 -12 -8 -35 4 -84 42 -178 9 -222 -77 -33 -66 -33 -189
1 -244 34 -54 96 -81 168 -72 l53 6 0 -59 c0 -36 -5 -63 -12 -67 -7 -4 -46 -8
-88 -8 -121 1 -207 52 -254 154 -30 65 -29 241 2 320 28 72 72 124 136 160 43
25 62 30 122 30 39 0 91 -7 117 -16z m-1217 -48 c82 -38 134 -125 155 -258 28
-181 -49 -318 -205 -363 -63 -19 -188 -35 -198 -26 -5 5 -108 594 -108 621 0
8 77 34 130 43 14 2 59 5 100 6 60 1 85 -4 126 -23z m1627 -26 l67 -14 1 -95
c0 -53 4 -202 8 -331 4 -129 5 -238 2 -241 -3 -3 -34 1 -68 9 l-63 14 0 83 0
84 -37 10 c-106 27 -96 31 -137 -55 -40 -84 -28 -79 -126 -54 l-36 10 149 300
c88 178 154 300 161 297 6 -2 41 -10 79 -17z m-2130 -90 l15 -60 -47 -13 c-25
-8 -68 -20 -94 -28 -48 -14 -48 -14 -42 -47 10 -53 23 -82 37 -82 7 0 48 11
91 25 56 17 79 20 82 12 2 -7 10 -33 18 -59 9 -26 13 -49 9 -52 -4 -2 -41 -14
-82 -26 -41 -12 -79 -25 -83 -29 -11 -11 23 -131 37 -131 6 0 51 12 99 26 49
14 93 22 97 18 5 -5 15 -32 23 -60 l15 -51 -153 -47 c-85 -25 -158 -46 -164
-46 -6 0 -19 30 -31 68 -116 392 -153 520 -154 537 -1 15 11 23 59 36 33 10
96 29 140 42 114 35 110 36 128 -33z m2577 -31 c102 -34 187 -63 189 -66 5 -4
-28 -104 -39 -116 -4 -4 -32 2 -64 14 -33 13 -60 18 -65 13 -4 -5 -41 -106
-81 -224 -40 -118 -76 -225 -81 -237 -8 -21 -9 -21 -60 -5 -28 9 -53 22 -56
28 -2 6 32 118 77 249 44 131 79 239 78 240 -2 1 -28 10 -58 20 -30 10 -58 20
-62 24 -8 7 22 121 31 121 3 0 89 -28 191 -61z m-3136 -106 c3 -21 6 -84 6
-140 l0 -101 -32 -21 c-30 -19 -33 -19 -36 -3 -9 53 -44 226 -49 238 -3 8 14
22 44 38 26 14 51 25 54 26 4 0 9 -17 13 -37z m3492 -34 c27 -12 50 -23 52
-24 3 -3 -245 -585 -253 -593 -2 -2 -29 6 -60 19 -41 17 -54 27 -50 38 35 91
251 581 256 581 3 0 28 -10 55 -21z m-3727 -329 c61 -126 114 -230 117 -230 3
0 44 18 91 40 47 22 88 38 92 36 10 -7 55 -105 50 -110 -7 -7 -268 -136 -280
-139 -7 -1 -24 23 -40 53 -58 112 -249 512 -249 520 0 10 80 60 96 60 6 0 61
-103 123 -230z m4141 140 c99 -51 140 -167 106 -300 -32 -126 -120 -241 -221
-291 -57 -28 -72 -31 -121 -26 -188 19 -265 211 -166 416 39 82 154 195 217
215 59 18 133 12 185 -14z m-4631 -178 c17 -27 31 -53 31 -59 0 -6 -36 -34
-80 -62 l-79 -52 36 -50 35 -50 27 17 c14 9 47 32 74 50 26 19 50 34 55 34 13
0 74 -102 65 -109 -5 -3 -38 -26 -73 -50 -36 -24 -67 -45 -69 -47 -2 -2 14
-30 35 -63 l38 -59 88 59 c48 32 89 59 91 59 11 0 67 -104 60 -110 -20 -19
-263 -180 -270 -179 -4 0 -26 28 -48 62 -23 34 -103 153 -179 265 -76 112
-136 205 -133 208 4 4 260 183 263 184 1 0 16 -22 33 -48z m5086 -172 c-8 -53
-62 -291 -74 -323 -4 -12 -11 -35 -15 -52 -6 -25 0 -20 34 28 40 58 186 254
201 271 6 7 49 -18 93 -55 5 -4 -7 -27 -26 -51 -19 -24 -41 -53 -49 -64 -12
-19 -226 -304 -247 -329 -4 -5 -20 -27 -35 -47 l-28 -36 -50 36 c-27 20 -49
44 -49 53 0 19 75 343 95 412 8 26 13 47 11 47 -1 0 -18 -21 -36 -47 -74 -104
-225 -303 -230 -303 -11 0 -91 62 -88 69 2 4 90 122 196 263 l193 257 55 -42
55 -42 -6 -45z m-2300 -40 c753 -81 1442 -379 2025 -876 94 -80 338 -326 416
-419 329 -394 576 -856 718 -1341 107 -370 153 -722 143 -1119 -13 -542 -117
-991 -345 -1486 -89 -193 -253 -467 -379 -632 -25 -32 -41 -62 -37 -69 4 -6 3
-8 -3 -5 -6 4 -37 -26 -69 -66 -68 -83 -132 -154 -223 -246 -53 -53 -61 -66
-49 -75 27 -20 171 -140 217 -182 25 -22 127 -108 226 -190 99 -83 216 -180
259 -216 44 -37 84 -64 89 -61 6 3 7 1 4 -4 -4 -6 22 -35 58 -64 36 -29 64
-56 63 -60 -5 -11 -77 -89 -83 -89 -4 0 -781 650 -918 769 -23 19 -33 14 -150
-86 -345 -293 -807 -540 -1263 -673 -643 -188 -1380 -200 -2029 -33 -535 137
-1044 398 -1439 737 -48 42 -91 76 -95 76 -3 0 -44 -33 -91 -73 -223 -192
-842 -708 -853 -712 -6 -2 -29 17 -50 42 l-38 46 24 21 c13 12 116 98 227 191
197 165 464 391 525 444 17 14 60 50 97 80 l68 54 -99 101 c-291 295 -547 681
-721 1086 -343 800 -394 1684 -143 2524 143 481 398 947 731 1336 65 75 242
260 304 316 285 258 572 451 915 616 418 201 857 314 1368 352 87 7 496 -3
600 -14z m-3117 -162 c99 -54 189 -175 213 -286 13 -62 -5 -135 -49 -201 -26
-39 -164 -161 -181 -161 -8 0 -414 464 -419 479 -2 5 29 41 68 79 131 131 244
159 368 90z m5992 -240 l47 -52 -44 -105 c-25 -58 -52 -124 -61 -146 -9 -22
-30 -68 -47 -102 l-32 -63 152 145 152 144 36 -37 c21 -21 37 -42 37 -48 0 -5
-44 -50 -97 -99 -54 -50 -160 -148 -236 -219 l-138 -129 -33 36 c-18 19 -37
42 -44 50 -10 11 3 49 64 188 41 95 86 196 100 224 l26 50 -89 -85 c-48 -46
-119 -115 -158 -152 -38 -37 -75 -68 -80 -68 -6 0 -28 17 -48 38 l-38 39 143
134 c79 73 170 159 203 191 71 67 129 118 134 118 2 0 25 -23 51 -52z m-6622
-227 c18 -14 32 -27 32 -31 0 -3 -27 -39 -60 -79 -33 -41 -60 -77 -60 -80 0
-3 21 -22 47 -41 l46 -35 36 45 c20 24 47 57 61 72 l25 28 45 -36 c52 -41 55
-47 38 -65 -7 -8 -34 -39 -60 -70 l-47 -56 54 -47 54 -46 67 80 c37 44 69 80
72 80 2 0 26 -17 52 -38 l48 -38 -50 -60 c-27 -32 -74 -89 -104 -126 -30 -38
-59 -68 -65 -68 -5 0 -78 57 -162 126 -83 69 -183 152 -222 183 -38 31 -81 66
-94 77 l-23 22 67 83 c128 158 138 168 155 155 9 -6 30 -22 48 -35z m7101
-345 c24 -36 40 -69 36 -76 -4 -6 -66 -80 -139 -164 -72 -84 -166 -194 -209
-245 l-78 -92 -18 23 c-9 13 -27 38 -40 56 l-23 32 56 63 55 63 -34 51 c-19
29 -39 54 -44 58 -6 3 -44 -9 -86 -26 -41 -18 -77 -30 -78 -28 -1 2 -17 26
-36 52 -18 27 -32 50 -30 52 2 2 103 42 224 90 121 47 256 101 300 119 44 19
85 34 90 35 6 0 30 -28 54 -63z m-7352 -58 c73 -31 123 -94 123 -153 0 -24 3
-25 53 -26 37 0 84 -12 159 -42 l107 -42 -30 -48 c-16 -26 -35 -50 -42 -53 -7
-2 -52 11 -101 31 -118 47 -147 45 -180 -12 -4 -7 33 -37 99 -79 104 -66 105
-67 90 -91 -8 -12 -23 -35 -32 -50 -9 -16 -18 -29 -19 -31 -1 -2 -94 57 -206
130 -111 74 -231 152 -265 174 -35 21 -63 45 -63 52 0 19 43 100 84 157 61 85
145 116 223 83z m7568 -275 c33 -59 77 -136 97 -172 21 -36 37 -68 38 -71 0
-8 -109 -64 -113 -59 -2 2 -19 29 -38 59 l-34 56 -155 -88 c-85 -49 -188 -107
-227 -129 l-73 -40 -27 55 c-15 31 -25 57 -22 60 2 2 99 57 214 122 116 64
214 121 218 124 9 8 -36 104 -54 115 -7 5 -4 12 8 20 24 16 96 55 103 55 3 -1
32 -49 65 -107z m-7857 -158 c2 -2 -15 -39 -37 -84 -23 -44 -41 -85 -41 -90 0
-11 80 -61 96 -61 6 0 28 36 49 80 21 44 43 80 47 80 12 0 108 -49 108 -56 0
-2 -18 -39 -40 -80 -22 -42 -40 -79 -40 -82 0 -7 109 -63 121 -62 3 0 25 38
48 84 22 47 45 87 51 91 12 7 110 -42 110 -55 0 -17 -145 -290 -154 -290 -7 0
-564 277 -574 285 -4 3 126 264 140 282 8 9 22 6 61 -14 29 -14 53 -27 55 -28z
m8066 -247 c14 -29 21 -57 17 -61 -9 -9 -569 -267 -579 -267 -12 1 -53 103
-44 112 5 5 112 56 238 114 126 58 252 116 279 129 28 13 53 24 58 24 4 1 18
-23 31 -51z m-8282 -147 l27 -10 -25 -62 c-14 -34 -22 -65 -17 -70 4 -4 111
-46 237 -93 126 -47 231 -88 234 -90 5 -6 -26 -95 -37 -109 -6 -5 -273 90
-473 168 -11 5 -18 0 -24 -17 -4 -13 -15 -42 -25 -65 l-18 -43 -61 22 c-46 17
-59 26 -54 38 3 8 35 94 71 192 l66 176 36 -13 c20 -7 48 -18 63 -24z m8303
-132 c59 -16 113 -57 143 -108 35 -60 37 -155 5 -217 -80 -152 -362 -243 -513
-166 -99 52 -146 161 -115 269 45 156 296 272 480 222z m-8502 -365 c66 -34
64 -30 41 -57 -44 -49 -55 -108 -27 -139 30 -33 60 -22 128 47 92 94 149 113
246 80 107 -36 154 -130 125 -244 -15 -59 -60 -141 -77 -141 -5 0 -33 12 -63
27 l-55 27 28 35 c58 74 65 147 16 169 -43 20 -53 15 -117 -53 -72 -76 -108
-95 -177 -95 -67 0 -108 18 -152 67 -46 51 -57 110 -35 186 15 50 50 117 61
117 3 0 29 -12 58 -26z m8786 -234 c20 -95 30 -83 -228 -258 -78 -52 -115 -82
-96 -78 40 10 358 76 367 76 6 0 28 -87 28 -110 0 -6 -7 -10 -16 -10 -17 0
-574 -107 -605 -116 -13 -4 -19 8 -29 61 -7 36 -11 67 -9 68 2 2 42 30 89 64
47 33 128 89 181 124 123 82 136 91 124 85 -13 -5 -414 -86 -429 -86 -11 0
-16 21 -19 84 l-2 29 215 42 c118 23 249 49 290 57 126 26 127 26 139 -32z
m-8902 -210 c47 -9 493 -86 543 -93 28 -4 28 -2 17 -76 -8 -51 -9 -53 -35 -48
-15 3 -155 26 -312 53 -157 26 -289 51 -293 55 -14 11 3 119 19 119 7 0 35 -4
61 -10z m203 -295 c316 -20 320 -20 320 -28 0 -4 0 -33 0 -66 l0 -58 -117 -43
c-65 -24 -167 -60 -228 -81 -60 -21 -102 -38 -93 -39 38 0 327 -20 373 -25
l50 -6 -4 -56 -3 -56 -117 7 c-159 9 -393 25 -469 32 l-63 6 3 71 3 71 100 38
c55 22 151 56 214 77 l114 38 -149 7 c-82 4 -175 10 -206 13 l-58 6 0 52 c0
28 3 54 6 58 3 3 20 4 37 1 18 -2 147 -11 287 -19z m8474 -115 c175 -32 320
-60 321 -62 1 -2 5 -38 7 -80 l5 -77 -61 -20 c-97 -32 -577 -181 -582 -181 -2
0 -4 31 -4 69 l0 68 81 23 81 23 -6 51 c-3 28 -6 60 -6 72 0 18 -10 22 -76 32
-42 7 -80 15 -85 18 -11 6 -12 124 -1 124 4 0 150 -27 326 -60z m-8174 -505
l0 -65 -137 0 c-76 0 -222 -3 -325 -7 l-188 -6 0 66 0 67 238 3 c130 1 276 3
325 5 l87 2 0 -65z m8160 5 c113 -5 239 -13 280 -16 l75 -6 -5 -61 c-4 -55 -7
-62 -25 -60 -11 1 -125 7 -254 14 -195 9 -235 9 -242 -2 -5 -8 -9 -53 -9 -101
l0 -88 -63 0 c-35 0 -66 2 -68 4 -5 5 10 306 16 324 4 9 17 12 47 8 24 -3 135
-10 248 -16z m-8155 -216 c4 -31 5 -58 2 -60 -2 -3 -98 -20 -213 -39 -115 -19
-220 -36 -234 -38 -15 -3 -6 -5 20 -6 62 -3 428 -46 434 -52 2 -2 7 -24 11
-49 l7 -46 -154 -56 c-84 -31 -179 -64 -210 -74 -32 -10 -56 -19 -55 -21 2 -1
91 6 198 17 269 27 246 30 254 -31 4 -27 5 -53 1 -56 -6 -6 -91 -15 -366 -37
-299 -25 -273 -26 -281 14 -4 19 -10 56 -13 81 l-7 46 88 33 c48 18 142 52
208 76 119 43 120 43 70 44 -53 0 -307 26 -360 36 -31 6 -32 7 -42 82 -6 42
-9 78 -9 79 1 1 130 25 286 53 157 28 290 52 295 54 6 3 22 5 36 5 25 1 27 -3
34 -55z m8120 -214 c353 -55 350 -55 348 -71 -9 -71 -46 -305 -48 -307 -4 -4
-117 16 -122 22 -3 2 3 46 12 96 8 51 14 94 12 96 -2 2 -28 8 -57 14 -38 7
-56 7 -60 -1 -4 -5 -13 -48 -20 -95 -12 -84 -12 -85 -39 -80 -14 3 -43 8 -63
12 -32 5 -37 9 -33 28 11 46 26 159 22 163 -7 6 -129 24 -134 20 -2 -3 -11
-49 -20 -103 -9 -55 -17 -100 -18 -101 -2 -3 -119 18 -123 21 -3 4 48 318 54
327 2 4 23 3 46 -2 24 -4 133 -22 243 -39z m-8407 -499 c125 -64 162 -218 78
-324 -14 -18 -16 -18 -58 1 -58 26 -114 89 -123 140 -7 45 7 110 38 165 11 20
22 37 24 37 2 0 20 -9 41 -19z m8450 -8 c47 -69 59 -161 29 -219 -21 -40 -65
-80 -109 -98 -48 -20 -43 -21 -66 17 -51 82 -49 173 5 238 28 33 100 89 114
89 4 0 16 -12 27 -27z m-8133 -340 c19 -60 15 -101 -15 -150 -22 -36 -102 -81
-151 -85 -31 -3 -34 0 -52 47 -43 114 -6 211 104 268 l54 28 22 -27 c11 -15
29 -51 38 -81z m7924 50 c48 -36 75 -103 68 -167 -5 -52 -34 -126 -49 -126
-22 0 -107 35 -135 56 -41 31 -68 100 -59 155 7 42 41 119 59 130 13 9 74 -17
116 -48z m-8338 -73 c77 -14 116 -38 139 -86 21 -42 24 -79 14 -133 -6 -30 -8
-31 -63 -31 -77 0 -141 23 -182 66 -31 32 -34 41 -37 109 -4 70 -3 74 19 78
41 8 55 7 110 -3z m8682 4 l37 -7 0 -62 c0 -48 -5 -70 -23 -96 -35 -52 -97
-81 -183 -87 l-73 -5 -7 37 c-15 81 9 153 61 187 11 7 45 19 75 25 68 15 67
15 113 8z m-8213 -148 c0 -7 7 -20 17 -27 25 -21 63 -110 63 -147 0 -39 -19
-79 -52 -108 -27 -26 -101 -64 -122 -64 -21 0 -55 61 -68 123 -10 47 -9 61 6
101 28 74 156 174 156 122z m7699 -1 c43 -21 97 -90 110 -138 9 -31 9 -55 2
-89 -13 -57 -48 -118 -68 -118 -8 0 -41 14 -73 31 -118 63 -130 168 -34 294
31 40 27 39 63 20z m-7976 -181 c77 -26 119 -103 103 -189 -6 -29 -12 -35 -41
-41 -20 -3 -64 -1 -99 6 -85 16 -138 59 -155 126 -14 55 -7 101 17 107 40 11
132 6 175 -9z m8373 10 c39 -10 37 -108 -3 -163 -32 -44 -105 -73 -184 -75
-80 -1 -89 6 -89 72 0 80 35 132 107 158 39 14 132 18 169 8z m-7909 -232 c19
-41 24 -64 20 -98 -7 -70 -74 -140 -149 -159 -23 -6 -30 -2 -47 26 l-20 32 6
-50 5 -51 -33 -7 c-72 -16 -165 -9 -210 16 -59 33 -81 68 -87 133 l-4 54 51
11 c105 22 211 2 240 -46 10 -15 11 -13 6 14 -14 70 34 156 115 208 l35 24 23
-27 c13 -15 35 -51 49 -80z m7399 69 c21 -15 48 -38 58 -49 23 -27 47 -113 39
-144 -6 -22 -5 -22 13 -6 52 45 147 60 240 37 42 -11 44 -13 44 -48 0 -20 -10
-57 -22 -81 -32 -63 -92 -92 -187 -91 -39 0 -82 3 -97 7 -25 6 -26 9 -22 56
l5 49 -18 -31 c-10 -16 -27 -30 -38 -30 -28 0 -112 60 -139 100 -21 30 -23 43
-19 94 4 46 13 70 42 112 21 30 43 54 50 54 6 0 30 -13 51 -29z m-7251 -310
c93 -104 73 -226 -49 -290 -45 -24 -47 -24 -67 -5 -32 29 -70 112 -71 154 -1
64 20 107 75 155 56 49 55 49 112 -14z m7142 -47 c31 -53 30 -121 -1 -182 -34
-68 -56 -85 -91 -72 -51 20 -103 69 -121 116 -16 43 -16 48 0 99 11 35 32 69
61 100 l46 47 42 -35 c23 -19 52 -52 64 -73z m-7387 -106 c54 -28 80 -69 87
-142 l6 -55 -39 -8 c-62 -13 -158 -7 -198 12 -55 26 -89 76 -94 140 l-4 53 43
10 c80 18 151 14 199 -10z m7660 11 c48 -10 50 -12 50 -45 0 -39 -23 -99 -48
-127 -39 -44 -141 -65 -226 -47 l-56 11 0 43 c0 23 10 61 23 86 39 79 129 107
257 79z m-7120 -154 c26 -42 34 -97 21 -138 -13 -37 -62 -92 -109 -119 -30
-18 -30 -18 -62 15 -95 95 -90 224 11 310 l43 37 39 -37 c21 -21 47 -51 57
-68z m6545 52 c85 -89 82 -200 -8 -294 -33 -35 -43 -34 -102 15 -69 56 -90
127 -60 200 18 42 92 122 114 122 8 0 33 -19 56 -43z m-6825 -185 c23 -11 43
-32 58 -62 23 -47 30 -124 11 -136 -22 -13 -144 -16 -186 -5 -81 22 -133 88
-133 170 l0 39 58 10 c70 13 146 6 192 -16z m7140 15 l55 -12 -1 -53 c-3 -117
-106 -178 -268 -158 l-56 7 0 52 c0 137 102 199 270 164z m-6705 -69 c91 -95
94 -179 10 -260 -65 -61 -73 -64 -100 -38 l-24 22 15 -48 c8 -27 12 -54 10
-61 -9 -22 -115 -46 -183 -40 -77 6 -126 39 -155 104 -27 61 -21 83 27 101 57
21 182 21 222 0 l33 -16 -17 31 c-21 40 -20 114 1 155 19 37 82 102 98 102 7
0 35 -24 63 -52z m6170 36 c13 -9 38 -36 55 -62 38 -57 42 -137 10 -190 l-20
-33 27 21 c16 11 49 23 75 26 57 8 197 -21 205 -43 8 -21 -13 -85 -39 -118
-29 -38 -93 -65 -153 -65 -47 0 -150 22 -163 34 -3 3 2 31 10 62 l16 55 -24
-22 -23 -21 -50 36 c-51 38 -91 102 -91 147 1 43 36 104 85 147 26 23 50 42
52 42 2 0 15 -7 28 -16z m-5883 -897 l27 -22 -24 -105 -23 -105 22 26 c11 14
40 47 63 74 l41 50 26 -24 c14 -14 26 -28 26 -32 0 -11 -213 -272 -225 -276
-5 -1 -22 7 -38 20 l-27 22 20 85 c11 47 22 94 24 105 3 13 -9 4 -32 -25 -20
-24 -49 -58 -63 -74 l-26 -29 -32 22 c-21 15 -29 27 -23 34 91 116 225 277
230 277 4 0 19 -10 34 -23z m1034 -47 c2 0 4 -30 4 -67 0 -38 3 -85 7 -107 l6
-38 33 82 c19 46 35 85 38 87 2 2 20 -3 40 -11 l35 -15 -45 -108 c-25 -59 -57
-136 -71 -170 -14 -35 -28 -63 -33 -63 -4 0 -21 5 -39 11 -29 10 -31 14 -32
62 -1 29 -4 77 -8 107 -6 47 -8 51 -15 31 -5 -14 -21 -53 -37 -88 l-28 -62
-33 13 c-18 8 -33 18 -33 23 0 4 31 83 69 175 l68 167 35 -14 c20 -8 37 -15
39 -15z m4624 -116 c80 -58 149 -109 153 -113 4 -4 -8 -20 -28 -36 l-36 -27
-23 21 -22 21 -37 -31 c-35 -29 -36 -31 -23 -58 14 -26 13 -28 -19 -54 l-34
-27 -21 47 c-47 106 -130 302 -130 308 0 9 54 54 65 55 6 0 75 -48 155 -106z
m-4334 5 c17 -6 23 -19 29 -71 l7 -63 43 48 42 49 42 -13 c22 -7 41 -14 41
-17 0 -3 -36 -45 -80 -93 -71 -77 -83 -96 -102 -158 -12 -39 -26 -71 -33 -71
-7 0 -26 5 -42 11 l-31 10 25 76 c25 79 24 95 -3 277 -7 41 -7 41 62 15z
m3153 -135 c58 -87 100 -159 95 -163 -5 -5 -23 -13 -40 -19 -28 -9 -33 -8 -45
14 -14 27 -23 29 -68 13 -26 -9 -31 -16 -31 -44 0 -29 -4 -35 -36 -45 -19 -7
-37 -10 -39 -8 -1 1 -8 75 -14 163 -6 88 -14 173 -16 188 -4 24 0 30 28 42 17
8 39 14 47 14 8 0 62 -70 119 -155z m-4149 58 c14 -10 34 -35 45 -55 18 -32
18 -40 7 -84 -17 -61 -65 -137 -108 -170 -73 -55 -172 -35 -209 43 -28 59 5
160 77 233 61 63 131 75 188 33z m3851 -162 l46 -180 -36 -10 c-34 -10 -38 -8
-71 27 -19 21 -52 58 -72 83 l-37 45 24 -93 23 -93 -25 -10 c-36 -13 -51 -11
-57 9 -44 154 -87 335 -80 342 5 5 23 11 40 12 27 3 38 -6 97 -75 37 -44 67
-75 67 -70 0 5 -9 41 -20 81 -29 103 -28 105 40 111 11 1 26 -43 61 -179z
m1175 161 c38 -23 68 -83 61 -125 -4 -29 -1 -33 42 -54 25 -12 59 -33 76 -47
29 -24 29 -25 10 -39 -55 -41 -59 -41 -124 4 -84 57 -99 50 -49 -24 21 -32 37
-64 35 -70 -3 -6 -18 -19 -34 -28 l-30 -17 -101 149 c-56 82 -102 153 -102
157 0 11 110 90 142 103 33 13 40 12 74 -9z m-3483 -68 l89 -17 -5 -39 c-3
-21 -7 -40 -9 -42 -1 -2 -27 2 -56 7 -29 6 -54 9 -56 7 -3 -2 -7 -16 -11 -30
-6 -26 -5 -27 45 -34 47 -6 51 -9 46 -29 -3 -11 -6 -29 -6 -39 0 -16 -6 -18
-54 -12 l-54 7 -13 -72 -12 -71 -41 7 c-23 3 -42 7 -43 8 -6 5 73 366 81 366
5 0 50 -8 99 -17z m1912 -135 c32 -68 68 -146 81 -174 l23 -52 -31 -6 c-48 -9
-54 -8 -66 19 -12 25 -34 31 -79 19 -16 -4 -23 -15 -25 -37 -3 -28 -7 -32 -40
-38 -21 -3 -39 -5 -41 -3 -1 1 4 87 13 190 16 204 15 202 81 203 24 1 31 -10
84 -121z m-1669 96 l20 -5 -26 -182 -26 -182 -37 1 c-21 1 -40 4 -43 7 -3 2 6
82 20 176 15 93 26 175 26 181 0 11 33 13 66 4z m1319 -24 c29 -11 55 -62 55
-107 0 -15 -9 -43 -21 -62 -18 -29 -18 -35 -6 -50 17 -19 67 -116 67 -130 0
-5 -20 -11 -44 -13 l-45 -3 -27 58 c-15 31 -37 65 -47 75 -19 17 -20 16 -13
-66 l7 -83 -43 3 -43 3 -18 178 c-11 98 -17 180 -14 183 4 5 49 11 154 23 6 0
23 -3 38 -9z m-1047 -8 c10 -7 72 -315 72 -364 0 -19 -25 -23 -67 -12 -17 5
-23 14 -23 35 0 25 -4 29 -29 29 -16 0 -36 3 -44 6 -10 3 -18 -5 -25 -25 -10
-28 -15 -31 -51 -31 -23 0 -41 3 -41 8 0 4 28 87 62 184 l63 178 35 0 c19 0
41 -4 48 -8z m299 -112 l43 -95 0 51 c0 28 3 72 6 98 7 47 7 47 43 44 35 -3
36 -4 36 -45 -1 -24 -2 -109 -3 -189 l-2 -145 -42 3 -42 3 -43 95 -43 95 -1
-80 c-1 -44 -2 -87 -3 -95 -1 -11 -13 -15 -41 -15 -37 0 -40 2 -39 28 0 15 1
99 2 188 l2 160 42 -3 42 -3 43 -95z m412 17 c14 -45 38 -122 53 -171 15 -49
28 -94 28 -101 0 -16 -66 -25 -80 -11 -6 6 -10 18 -10 27 0 21 -16 26 -60 19
-29 -4 -36 -10 -38 -32 -3 -26 -7 -28 -49 -28 -39 0 -45 2 -40 19 2 10 21 96
42 190 l38 171 46 0 46 0 24 -83z m1990 59 c93 -49 166 -209 127 -284 -22 -43
-142 -111 -161 -91 -14 16 -175 298 -175 307 0 12 134 81 158 82 13 0 36 -7
51 -14z m-4445 -23 l36 -17 -66 -123 c-36 -69 -64 -126 -62 -128 1 -1 27 -14
56 -29 28 -14 52 -29 52 -32 0 -4 -10 -24 -22 -45 l-22 -39 -85 46 c-47 26
-90 50 -95 54 -9 9 155 330 169 330 3 0 20 -8 39 -17z m4257 -234 c41 -89 75
-165 77 -168 1 -4 -14 -15 -34 -24 -40 -20 -31 -23 -119 48 -91 74 -88 73 -59
9 14 -31 32 -70 40 -85 14 -27 13 -29 -17 -44 -17 -9 -35 -15 -40 -13 -8 3
-140 275 -154 317 -4 12 4 22 29 34 l35 16 80 -65 c45 -36 81 -60 81 -54 0 6
-16 42 -35 80 -19 38 -35 72 -35 74 0 7 52 35 66 36 6 0 44 -73 85 -161z
m-3936 81 c43 -26 59 -67 53 -134 -9 -104 -81 -207 -156 -222 -46 -9 -116 27
-137 73 -28 58 -9 151 49 236 43 65 128 86 191 47z m3629 -218 c36 -92 66
-171 66 -175 0 -7 -71 -39 -76 -34 -4 4 -134 337 -134 343 0 5 59 33 72 34 3
0 36 -76 72 -168z m-3458 142 c28 -7 29 -14 10 -161 -7 -57 -12 -103 -10 -103
1 0 32 47 69 105 37 58 70 105 74 105 17 0 71 -22 71 -29 0 -8 -186 -280 -205
-300 -12 -12 -20 -12 -55 -1 -46 15 -44 0 -30 194 14 189 18 209 37 202 8 -3
26 -9 39 -12z m3246 -65 c40 -21 61 -115 37 -162 -9 -16 -9 -22 0 -25 14 -5
101 -110 101 -123 0 -4 -19 -14 -41 -21 l-41 -12 -52 59 c-29 32 -57 56 -62
54 -7 -3 -4 -27 9 -67 22 -69 19 -78 -30 -88 l-31 -6 -57 172 c-31 94 -54 174
-50 178 13 14 131 50 163 51 18 1 42 -4 54 -10z m-2889 -51 l40 -12 -6 -189
c-2 -103 -7 -190 -9 -192 -2 -3 -21 0 -41 6 -33 9 -37 13 -37 42 0 30 -4 34
-42 44 -33 9 -45 9 -50 0 -25 -41 -26 -41 -63 -31 -20 5 -37 13 -37 18 -2 13
186 325 196 326 5 0 27 -5 49 -12z m2583 -47 c61 -37 109 -191 85 -271 -7 -22
-23 -47 -37 -57 -32 -21 -156 -55 -165 -45 -8 9 -93 352 -88 356 11 8 118 34
144 35 17 1 44 -8 61 -18z m-2168 -47 c109 -18 112 -19 112 -44 0 -14 -3 -35
-6 -48 -6 -21 -11 -22 -48 -17 l-41 7 -24 -137 -24 -136 -41 7 c-23 3 -42 7
-43 8 -1 1 9 63 22 137 14 73 25 135 25 136 0 2 -18 6 -41 9 -41 7 -41 7 -35
43 3 20 6 42 6 50 0 7 6 11 13 9 6 -3 63 -13 125 -24z m1902 9 c0 -4 14 -85
31 -181 16 -96 29 -176 27 -177 -2 -2 -21 -5 -42 -7 -39 -3 -41 -2 -95 74 -30
43 -57 75 -59 73 -3 -2 1 -41 8 -85 7 -44 11 -82 9 -84 -2 -3 -20 -7 -39 -11
l-36 -6 -32 182 c-17 101 -29 185 -27 187 2 2 21 6 42 8 38 4 38 4 98 -80 33
-46 61 -84 62 -83 0 1 -5 36 -12 77 -18 99 -18 108 3 113 28 8 62 8 62 0z
m-1559 -70 c11 -11 23 -38 26 -59 l5 -40 -40 4 c-31 3 -42 10 -51 29 -13 28
-46 28 -46 -1 0 -12 17 -28 48 -45 66 -36 80 -60 75 -127 -8 -92 -66 -134
-155 -112 -54 13 -74 36 -80 93 l-6 45 42 0 c34 0 41 -3 41 -19 0 -23 25 -51
45 -51 18 0 37 34 30 52 -3 7 -28 25 -55 40 -60 34 -84 74 -75 128 4 21 18 51
31 66 23 24 30 26 85 22 43 -3 66 -10 80 -25z m1257 -155 c23 -198 24 -198
-34 -198 l-31 0 -17 143 c-9 78 -20 161 -23 184 -5 38 -3 42 18 46 69 13 63
25 87 -175z m-989 130 c13 -38 74 -358 69 -364 -3 -2 -24 -2 -47 2 -37 6 -41
9 -41 35 0 28 -2 29 -49 29 -44 0 -49 -3 -55 -25 -6 -22 -12 -25 -52 -25 -33
0 -45 4 -42 13 3 6 31 90 62 185 l58 172 44 0 c37 0 46 -4 53 -22z m350 -12
c41 -37 36 -150 -9 -178 -18 -11 -18 -13 -1 -37 17 -24 51 -114 51 -133 0 -5
-21 -8 -46 -6 l-47 3 -26 69 c-36 95 -49 96 -53 4 l-3 -73 -42 -3 -43 -3 0
184 c0 101 3 187 8 191 4 4 48 6 98 4 73 -2 96 -7 113 -22z m313 -156 c32 -96
58 -178 58 -182 0 -5 -20 -8 -45 -8 -43 0 -46 2 -52 30 -5 30 -8 31 -52 28
-42 -3 -46 -5 -51 -33 -5 -27 -9 -30 -48 -33 -31 -2 -42 1 -42 11 0 14 67 331
75 355 3 9 20 12 52 10 l46 -3 59 -175z"/>
<path d="M4273 9522 c-10 -6 -10 -22 -1 -72 6 -36 20 -126 32 -200 l22 -135
40 2 c45 3 79 26 112 74 21 31 23 43 20 120 -7 147 -62 219 -168 219 -25 0
-51 -4 -57 -8z"/>
<path d="M7143 9021 c-44 -32 -69 -63 -101 -128 -63 -123 -39 -233 51 -233
108 0 244 213 207 325 -23 70 -89 85 -157 36z"/>
<path d="M4859 7346 c-124 -78 -267 -167 -318 -199 l-93 -59 -397 127 c-218
70 -398 129 -402 131 -10 6 -135 -122 -257 -263 -68 -79 -131 -147 -141 -152
-13 -7 -103 10 -322 60 -167 39 -322 72 -344 76 l-40 5 -43 -198 c-23 -109
-46 -202 -52 -208 -7 -7 -90 1 -252 22 -134 18 -251 32 -262 32 -21 0 -20 -1
17 -100 14 -36 53 -139 87 -230 33 -91 70 -172 81 -182 19 -16 19 -37 19 -891
l0 -875 34 -21 c18 -12 38 -21 45 -21 8 0 11 42 11 140 l0 140 115 0 115 0 0
-193 0 -194 40 -16 40 -15 2 211 3 212 195 16 c107 9 265 22 350 28 85 7 165
14 178 17 l22 4 0 -359 0 -358 31 -7 c17 -3 38 -6 45 -6 12 0 14 62 14 363 l0
364 122 6 c66 4 161 7 211 7 88 0 89 0 82 23 -3 12 -9 33 -12 46 l-6 24 -181
-7 c-100 -4 -278 -13 -396 -21 -118 -8 -370 -24 -560 -35 -190 -11 -358 -22
-373 -25 -28 -5 -28 -4 -25 38 l3 42 165 12 c91 6 262 18 380 27 118 8 382 23
585 32 204 9 371 17 372 18 1 0 -1 13 -4 28 l-5 27 -179 -6 -179 -6 0 300 0
301 48 6 c26 3 104 8 174 12 76 4 131 11 136 18 11 15 32 89 27 94 -12 12
-732 -65 -1109 -119 -115 -16 -211 -27 -213 -25 -15 15 812 146 1147 181 205
21 199 19 216 61 8 20 13 38 10 41 -2 3 -99 -4 -216 -14 -116 -10 -213 -17
-216 -14 -2 2 -4 102 -4 222 l0 217 28 6 c155 34 530 86 729 102 79 7 83 8
163 65 45 33 78 59 74 59 -25 0 -341 -30 -419 -39 -426 -51 -954 -161 -1467
-307 -124 -35 -231 -64 -237 -64 -6 0 -11 15 -11 33 l0 34 178 51 c710 206
1413 334 2012 367 78 4 130 13 161 25 25 11 84 30 130 44 l84 25 -173 0 -173
1 3 118 3 117 615 0 615 0 0 -125 c0 -105 -2 -124 -15 -122 -8 2 -71 5 -140 8
l-125 4 65 -18 c36 -11 106 -35 155 -54 71 -28 110 -37 185 -43 634 -44 1361
-209 2000 -454 69 -26 75 -31 78 -60 2 -17 -1 -31 -6 -31 -5 0 -40 11 -77 25
-438 165 -1046 324 -1495 390 -98 15 -424 55 -444 55 -5 0 17 -18 50 -41 32
-23 68 -49 79 -59 14 -13 64 -24 178 -39 167 -23 594 -98 608 -107 9 -5 13
-417 5 -425 -3 -2 -89 4 -191 14 -103 10 -189 17 -191 14 -2 -2 2 -20 11 -40
16 -40 19 -41 160 -57 179 -22 335 -47 650 -107 132 -26 235 -48 228 -50 -6
-2 -99 9 -205 26 -262 41 -787 103 -797 95 -2 -2 2 -25 9 -53 14 -57 12 -57
155 -66 50 -3 109 -8 133 -11 l42 -5 0 -294 c0 -162 -3 -295 -7 -297 -5 -2
-77 -1 -161 2 -112 4 -152 2 -152 -7 0 -6 -2 -18 -5 -26 -5 -12 21 -15 157
-20 90 -3 305 -17 478 -31 329 -27 688 -54 753 -58 36 -2 37 -3 37 -40 0 -37
-1 -38 -38 -38 -22 0 -151 9 -288 20 -713 56 -909 70 -1012 72 l-114 3 -17
-46 -18 -46 191 -7 c105 -4 194 -11 199 -15 4 -4 6 -166 5 -360 -3 -348 -3
-352 17 -347 11 3 30 6 43 6 l22 0 0 350 0 350 33 -1 c17 0 168 -10 335 -22
l303 -22 -1 -223 c-1 -241 -3 -232 57 -210 l33 12 0 204 0 204 93 -6 c50 -4
109 -9 130 -12 l37 -6 0 -134 c0 -74 2 -134 5 -134 2 0 23 7 45 16 l40 16 3
902 3 901 88 250 c48 138 90 260 93 273 7 28 10 28 -219 -2 -309 -42 -295 -41
-306 -19 -10 17 -27 104 -62 306 -10 53 -16 67 -30 67 -9 0 -157 -34 -327 -75
-171 -41 -320 -75 -331 -75 -12 0 -33 15 -49 36 -104 134 -245 307 -288 351
l-50 53 -374 -140 c-206 -77 -380 -140 -386 -140 -7 0 -90 45 -186 101 -162
94 -395 229 -464 269 l-30 17 -226 -141z m393 21 c193 -111 412 -242 450 -268
31 -23 55 -24 105 -5 21 8 144 53 273 100 129 47 278 101 330 120 52 20 100
36 107 36 6 0 73 -74 148 -165 75 -91 140 -163 145 -160 4 3 7 -1 6 -8 -2 -21
72 -97 94 -97 15 0 278 62 603 142 29 7 50 8 56 2 5 -5 20 -82 35 -172 15 -90
32 -175 39 -189 13 -29 -2 -30 327 10 102 13 186 19 188 15 5 -12 -141 -448
-150 -448 -5 0 -8 26 -8 59 0 50 9 80 64 205 35 80 61 148 57 150 -22 13 -395
-36 -418 -55 -8 -8 -24 -33 -34 -57 -14 -31 -24 -43 -36 -40 -15 3 -18 15 -19
78 -1 41 -16 151 -34 243 l-33 169 -26 -5 c-14 -2 -145 -32 -291 -67 l-265
-63 -29 -59 c-20 -42 -32 -58 -43 -54 -8 3 -28 6 -44 6 -35 0 -39 22 -8 44 16
11 20 21 15 41 -4 16 -11 23 -18 19 -6 -4 -8 -3 -4 4 7 12 -67 108 -221 288
l-104 121 -312 -115 c-172 -63 -322 -117 -334 -119 -20 -5 -21 -9 -16 -55 l6
-50 -59 7 c-100 13 -108 17 -115 58 -8 52 -6 50 -398 283 -153 91 -225 124
-207 96 3 -5 -1 -9 -8 -9 -7 0 -37 -15 -67 -35 -30 -19 -161 -101 -292 -183
-183 -114 -235 -150 -223 -157 32 -18 15 -28 -46 -28 -65 0 -98 17 -98 50 0
10 -6 22 -12 28 -14 10 -177 63 -473 152 l-190 57 -115 -121 c-64 -66 -141
-148 -171 -181 l-56 -60 18 -42 c20 -47 22 -45 -43 -63 -42 -11 -51 -10 -74 4
-14 10 -30 30 -35 46 -11 30 -28 36 -234 74 -44 9 -138 27 -209 41 -162 31
-162 31 -169 -2 -3 -16 -22 -100 -42 -188 -29 -124 -34 -164 -26 -178 10 -14
7 -19 -14 -27 -33 -13 -58 -13 -51 -1 7 11 4 12 -228 51 -191 32 -226 35 -226
21 0 -5 11 -33 24 -62 13 -30 46 -113 75 -184 48 -123 61 -175 44 -175 -6 0
-85 196 -179 444 -9 22 -28 24 296 -24 l205 -30 18 21 c9 12 17 31 17 43 1 11
15 95 33 186 26 127 37 166 49 168 14 3 499 -104 637 -140 l44 -11 46 49 c25
27 114 126 197 220 111 126 154 168 164 163 21 -12 661 -219 676 -219 6 0 17
-6 23 -14 6 -7 29 -16 50 -20 37 -6 54 3 342 180 167 102 308 190 314 195 5 5
12 9 16 9 5 0 81 -42 171 -93z m-882 -602 c0 -113 0 -115 -22 -115 -96 0 -570
-54 -782 -89 -94 -16 -174 -27 -178 -24 -5 2 -8 47 -8 99 0 111 -15 99 170
137 237 49 631 104 753 106 l67 1 0 -115z m1675 79 c175 -21 387 -60 576 -105
91 -21 169 -39 173 -39 3 0 6 -48 6 -106 0 -96 -2 -105 -17 -100 -44 13 -331
67 -454 85 -75 11 -217 27 -315 36 -99 9 -189 19 -201 21 -22 4 -23 8 -23 120
l0 116 68 -7 c37 -4 121 -13 187 -21z m-2765 -237 l0 -103 -177 -42 c-342 -81
-518 -123 -535 -128 -16 -5 -18 3 -18 79 l0 84 73 21 c39 12 182 53 317 92
135 39 263 78 285 85 22 7 43 14 48 14 4 1 7 -45 7 -102z m3960 -55 l315 -107
3 -77 c3 -70 1 -78 -15 -77 -10 0 -157 39 -328 87 l-310 87 -3 98 c-2 74 0 97
10 96 7 0 155 -48 328 -107z m-4790 -170 l0 -79 -92 -27 c-50 -16 -98 -30
-105 -33 -11 -4 -13 10 -11 73 l3 78 90 32 c50 18 96 33 103 33 8 1 12 -21 12
-77z m5358 -47 l92 -40 0 -67 c0 -38 -1 -68 -3 -68 -14 0 -235 87 -236 93 -1
4 -1 39 -1 77 l0 70 29 -12 c15 -7 69 -31 119 -53z m-4528 -315 l0 -219 -32
-6 c-18 -3 -170 -28 -338 -55 -168 -28 -317 -53 -332 -56 l-28 -6 0 191 0 190
38 10 c328 82 679 169 685 170 4 0 7 -98 7 -219z m3950 87 l325 -93 3 -182 c1
-100 -1 -182 -5 -182 -5 0 -153 28 -330 62 l-323 63 0 212 c0 117 1 213 3 213
1 0 148 -42 327 -93z m-4770 -262 c0 -201 9 -185 -110 -204 -41 -7 -83 -15
-93 -18 -16 -4 -17 7 -15 173 l3 177 100 27 c55 14 103 24 108 22 4 -2 7 -82
7 -177z m5299 94 c48 -17 100 -36 116 -43 l30 -13 -3 -158 c-3 -156 -3 -157
-25 -151 -12 4 -66 16 -119 28 l-98 21 0 173 c0 96 3 174 7 174 4 0 45 -14 92
-31z m-4479 -668 l0 -298 -77 -7 c-43 -3 -188 -13 -323 -21 -135 -8 -264 -17
-287 -20 l-43 -5 0 275 c0 174 4 275 10 275 5 0 72 9 147 19 76 11 194 27 263
36 69 10 163 23 210 30 47 7 88 13 93 14 4 1 7 -133 7 -298z m3940 229 c146
-22 282 -43 303 -46 l37 -6 0 -270 0 -270 -52 5 c-29 4 -168 13 -308 22 -140
9 -265 19 -277 21 l-23 4 0 295 0 295 28 -5 c15 -3 146 -23 292 -45z m-4770
-314 l0 -264 -27 -6 c-16 -3 -63 -8 -106 -12 l-77 -6 2 263 3 264 70 11 c39 6
85 12 103 13 l32 1 0 -264z m5323 219 c45 -9 92 -18 105 -21 l22 -4 0 -250 c0
-193 -3 -250 -12 -250 -7 0 -61 5 -120 12 l-108 11 0 265 c0 231 2 263 15 258
8 -3 52 -13 98 -21z"/>
<path d="M4958 6580 c-553 -70 -1001 -477 -1123 -1020 -26 -115 -31 -376 -11
-492 97 -538 488 -942 1031 -1065 62 -14 121 -18 260 -17 197 0 284 15 450 76
433 159 750 541 832 1002 20 118 20 324 0 442 -93 526 -497 943 -1022 1055
-104 22 -319 32 -417 19z m522 -202 c0 -10 4 -18 10 -18 5 0 13 -15 18 -33 5
-19 21 -45 36 -60 14 -14 26 -34 26 -45 0 -10 7 -38 15 -63 8 -24 19 -81 24
-126 5 -44 16 -96 25 -114 21 -42 20 -83 -1 -130 -26 -55 -49 -50 -70 15 -5
17 -14 31 -20 33 -19 7 -20 -21 -3 -75 21 -64 13 -122 -24 -177 -32 -46 -32
-64 -4 -100 15 -19 18 -30 10 -33 -13 -4 -52 -86 -52 -108 0 -7 -9 -33 -19
-56 -11 -24 -43 -117 -71 -208 -28 -91 -69 -221 -91 -290 -21 -69 -43 -147
-49 -175 -18 -99 -39 -177 -53 -198 -8 -12 -24 -52 -36 -89 -13 -38 -28 -68
-36 -68 -7 0 -18 -7 -25 -15 -7 -8 -28 -15 -46 -15 -34 0 -119 -34 -130 -51
-9 -14 -87 -10 -109 7 -11 8 -35 19 -55 24 -39 11 -100 64 -100 87 0 8 -12 29
-26 46 -25 29 -26 36 -22 110 3 43 1 80 -4 83 -4 3 -8 12 -8 21 0 9 -8 26 -19
37 -36 41 -52 157 -26 192 8 10 15 34 15 52 0 25 5 35 25 42 14 5 30 22 37 37
19 47 48 107 68 138 24 38 27 137 5 155 -8 7 -15 29 -15 49 0 20 -9 50 -20 66
-13 19 -20 47 -20 77 0 26 -5 58 -11 72 -10 21 -6 34 30 96 29 51 41 83 41
111 0 38 1 39 37 39 20 0 44 7 54 16 9 8 32 17 50 19 19 3 39 11 45 19 6 8 22
13 37 12 15 -2 30 1 33 5 9 15 32 10 37 -8 3 -12 5 -10 6 7 1 18 14 36 43 58
49 37 58 39 65 12 3 -11 9 -20 14 -20 12 0 11 7 -3 30 -10 16 -9 23 10 43 12
13 22 28 22 34 0 6 7 14 16 17 13 5 15 1 12 -24 -3 -16 -4 -30 -2 -30 11 0 41
73 37 90 -4 14 2 28 16 41 22 21 27 44 11 54 -15 9 -12 32 7 50 16 16 18 16
34 -4 19 -24 34 -28 26 -7 -5 13 26 47 41 45 23 -4 32 4 32 25 0 14 5 28 10
31 16 10 12 53 -7 82 -17 26 -17 26 3 21 17 -4 27 4 49 39 28 43 44 44 45 1z"/>
<path d="M4455 3893 c-133 -17 -360 -89 -495 -157 -47 -24 -143 -82 -215 -129
-332 -218 -682 -353 -1071 -411 -130 -20 -164 -51 -106 -96 25 -21 34 -22 117
-16 367 25 834 200 1211 453 82 55 173 112 202 127 197 100 488 156 607 116
93 -30 158 -107 200 -238 20 -63 24 -68 62 -81 54 -19 118 -2 135 35 8 17 17
23 27 18 9 -3 41 -8 71 -10 71 -6 99 9 115 61 32 108 108 205 193 247 92 44
243 32 428 -33 150 -53 225 -93 378 -202 217 -154 552 -308 822 -376 275 -70
544 -95 544 -51 0 12 -20 17 -145 35 -298 44 -648 170 -923 334 -29 17 -57 31
-62 31 -4 0 -10 4 -12 9 -6 16 -191 131 -283 176 -249 122 -582 183 -786 145
-167 -32 -295 -146 -349 -314 l-12 -38 -18 53 c-56 164 -173 269 -339 305 -60
12 -223 17 -296 7z"/>
<path d="M5615 3445 c-38 -9 -105 -33 -148 -54 l-79 -40 -43 34 c-44 33 -115
55 -178 55 -50 0 -153 -27 -206 -55 -81 -41 -91 -61 -124 -250 l-12 -70 -153
-12 c-237 -18 -585 -74 -1107 -178 -445 -89 -835 -175 -867 -191 -46 -24 -30
-76 28 -90 14 -4 131 17 282 50 898 196 1541 305 1798 306 76 0 95 3 114 20
13 11 33 20 45 20 12 0 32 11 45 25 31 33 78 45 177 45 109 0 175 15 204 46
21 22 25 38 27 109 2 45 -1 91 -6 101 -10 18 -6 19 64 16 68 -4 80 -2 133 27
167 89 345 78 640 -40 446 -179 535 -210 766 -268 226 -56 438 -75 555 -50 49
11 61 21 39 35 -7 4 -78 8 -158 9 -213 2 -414 51 -744 180 -353 139 -407 158
-535 191 -126 33 -151 36 -312 40 -130 3 -193 0 -245 -11z"/>
<path d="M4305 3429 c-66 -4 -158 -14 -205 -24 -79 -16 -299 -83 -345 -105
-46 -22 -302 -122 -396 -155 -272 -95 -484 -139 -619 -130 -47 3 -98 2 -115
-3 -28 -8 -25 -10 36 -20 236 -42 672 53 1154 253 213 88 342 132 445 151 133
25 258 7 352 -52 30 -20 50 -24 105 -23 110 1 118 10 43 47 -111 54 -248 73
-455 61z"/>
<path d="M5430 3231 c0 -5 44 -12 98 -15 368 -23 554 -63 992 -215 307 -107
449 -142 660 -161 160 -15 389 -2 375 20 -3 5 -65 6 -138 3 -281 -12 -566 45
-877 177 -170 71 -542 159 -790 185 -152 17 -320 20 -320 6z"/>
<path d="M4540 3223 c-334 -35 -621 -102 -906 -213 -191 -75 -247 -93 -399
-127 -109 -25 -141 -27 -340 -29 -277 -3 -253 0 -233 -20 13 -14 46 -18 180
-22 244 -7 457 29 716 119 317 111 381 132 524 168 218 57 426 88 628 94 59 2
75 5 75 17 0 12 -19 15 -105 16 -58 1 -121 -1 -140 -3z"/>
<path d="M5346 3040 c-27 -5 -53 -13 -58 -18 -20 -20 30 -30 192 -35 184 -6
350 -29 785 -107 156 -28 680 -135 904 -185 242 -53 348 -66 381 -45 34 21 4
30 -515 140 -905 192 -1513 282 -1689 250z"/>
<path d="M2145 8482 c-41 -26 -58 -48 -48 -65 16 -26 256 -297 264 -297 12 0
61 63 75 97 22 52 7 103 -53 183 -71 92 -166 125 -238 82z"/>
<path d="M1360 7588 c-47 -50 -46 -54 29 -103 38 -25 72 -45 75 -45 11 0 36
60 36 89 0 20 -9 37 -31 55 -38 32 -81 34 -109 4z"/>
<path d="M9095 6636 c-91 -29 -168 -88 -181 -140 -9 -36 13 -84 47 -101 78
-41 256 8 327 90 49 55 42 119 -18 150 -35 18 -120 19 -175 1z"/>
<path d="M821 4061 c-29 -68 -28 -127 4 -174 21 -30 87 -77 110 -77 3 0 15 19
25 43 37 81 21 146 -53 215 -26 23 -51 42 -56 42 -4 0 -18 -22 -30 -49z"/>
<path d="M9264 4088 c-66 -51 -94 -98 -94 -156 0 -41 32 -122 48 -122 5 0 28
13 53 29 76 48 99 131 60 217 -25 54 -33 58 -67 32z"/>
<path d="M1090 3831 c-100 -53 -133 -147 -88 -246 13 -30 29 -31 83 -6 61 27
95 73 95 127 0 42 -35 145 -49 144 -3 -1 -22 -9 -41 -19z"/>
<path d="M8992 3805 c-14 -29 -22 -64 -22 -96 0 -46 4 -55 38 -89 21 -21 56
-43 81 -51 50 -15 55 -11 71 65 13 63 0 113 -42 153 -27 25 -87 63 -101 63 -1
0 -13 -20 -25 -45z"/>
<path d="M670 3683 c0 -92 64 -148 184 -160 l53 -6 7 37 c8 44 -8 107 -33 130
-30 27 -90 45 -153 46 l-58 0 0 -47z"/>
<path d="M9327 3716 c-21 -8 -47 -22 -58 -32 -27 -24 -43 -85 -35 -129 l7 -38
52 6 c122 12 181 62 182 152 l0 50 -55 2 c-30 2 -72 -4 -93 -11z"/>
<path d="M1179 3560 c-69 -56 -89 -151 -49 -230 24 -48 41 -50 97 -13 57 36
77 77 71 138 -6 45 -49 124 -73 132 -6 2 -27 -10 -46 -27z"/>
<path d="M8890 3548 c-67 -93 -59 -170 24 -225 64 -44 80 -42 105 10 28 58 27
120 -3 171 -21 35 -74 86 -91 86 -2 0 -18 -19 -35 -42z"/>
<path d="M828 3413 c-25 -4 -28 -8 -28 -46 0 -52 28 -100 72 -123 18 -10 66
-19 106 -22 l72 -5 0 55 c0 61 -21 97 -69 123 -31 16 -112 25 -153 18z"/>
<path d="M9204 3409 c-23 -6 -53 -20 -67 -33 -27 -25 -49 -87 -42 -121 2 -11
4 -24 4 -29 2 -16 135 -1 175 20 46 23 76 73 76 125 0 34 -2 37 -37 43 -46 7
-56 7 -109 -5z"/>
<path d="M1302 3232 c-66 -61 -79 -128 -42 -210 23 -51 39 -58 78 -38 34 17
91 80 93 101 1 8 2 21 3 28 7 42 -51 157 -78 157 -7 0 -31 -17 -54 -38z"/>
<path d="M991 3089 c-24 -5 -46 -10 -48 -13 -12 -11 13 -82 39 -112 41 -47
139 -68 217 -47 21 5 23 10 19 55 -6 61 -45 105 -104 118 -46 11 -63 11 -123
-1z"/>
<path d="M8751 3224 c-60 -94 -48 -167 35 -223 27 -17 55 -30 64 -29 21 4 60
86 60 127 0 50 -36 118 -78 146 -20 14 -40 25 -45 25 -4 0 -21 -21 -36 -46z"/>
<path d="M9035 3091 c-68 -17 -105 -65 -105 -135 0 -32 3 -36 36 -42 54 -10
144 2 173 24 36 27 59 62 66 103 6 32 4 37 -17 42 -47 12 -124 16 -153 8z"/>
<path d="M1486 2954 c-42 -41 -66 -88 -66 -132 0 -33 47 -131 66 -139 16 -6
70 26 102 60 50 53 33 154 -36 220 l-29 27 -37 -36z"/>
<path d="M8598 2963 c-76 -82 -89 -158 -37 -218 18 -20 46 -43 62 -52 30 -15
31 -15 58 15 64 72 60 161 -10 235 l-46 48 -27 -28z"/>
<path d="M1177 2800 c-27 -5 -51 -11 -54 -14 -12 -11 9 -77 34 -107 36 -42 79
-59 152 -59 84 0 91 4 91 56 0 61 -42 109 -111 123 -27 6 -53 10 -57 10 -4 -1
-29 -5 -55 -9z"/>
<path d="M8855 2801 c-65 -16 -97 -54 -110 -128 -6 -40 -5 -43 19 -49 51 -12
164 0 193 22 58 43 89 125 55 143 -25 13 -123 20 -157 12z"/>
<path d="M1758 2718 c-73 -60 -91 -152 -45 -231 41 -69 48 -72 95 -37 78 56
93 132 43 212 -16 26 -39 51 -50 57 -25 14 -24 14 -43 -1z"/>
<path d="M8317 2688 c-19 -24 -40 -61 -47 -84 -11 -35 -10 -46 5 -78 18 -38
92 -109 108 -103 5 1 23 21 39 44 32 43 46 110 34 158 -8 30 -73 105 -91 105
-8 0 -29 -19 -48 -42z"/>
<path d="M1400 2521 c-21 -6 -25 -13 -22 -40 1 -18 9 -46 17 -62 28 -53 133
-87 220 -71 l40 8 -3 44 c-6 88 -60 130 -162 129 -36 -1 -76 -4 -90 -8z"/>
<path d="M8563 2510 c-44 -26 -64 -60 -66 -111 l-2 -43 49 -8 c57 -10 141 5
172 30 32 27 52 64 56 101 4 42 -12 48 -112 50 -48 1 -73 -4 -97 -19z"/>
<path d="M1933 2468 c-72 -75 -70 -160 5 -248 l29 -34 38 28 c67 51 93 123 64
179 -12 24 -89 107 -99 107 -3 0 -20 -15 -37 -32z"/>
<path d="M1653 2238 c-26 -9 -33 -16 -33 -37 0 -55 62 -114 131 -126 47 -8
159 13 166 32 9 23 -25 97 -55 118 -32 23 -156 31 -209 13z"/>
<path d="M8143 2473 c-47 -43 -73 -93 -73 -142 0 -39 5 -49 49 -93 57 -56 67
-56 111 9 37 56 46 100 30 148 -12 35 -64 105 -79 105 -4 0 -21 -12 -38 -27z"/>
<path d="M8294 2231 c-32 -20 -64 -74 -64 -110 0 -29 39 -43 125 -45 57 -1 77
3 106 22 37 23 69 74 69 110 0 41 -178 59 -236 23z"/>
<path d="M2536 1299 c-40 -31 -79 -105 -72 -134 10 -41 51 -44 91 -5 18 17 41
49 50 71 17 36 17 40 1 64 -20 30 -35 31 -70 4z"/>
<path d="M3172 937 c-28 -29 -52 -89 -52 -126 0 -41 32 -59 66 -37 31 21 66
90 67 133 2 54 -43 71 -81 30z"/>
</g>
</svg>
